<svg width="47" height="48" viewBox="0 0 47 48" fill="none" xmlns="http://www.w3.org/2000/svg">
<rect width="47" height="48" rx="13" fill="#F15A2B"/>
<path d="M32.8183 31.9287C32.3681 31.9379 31.9259 31.8091 31.5511 31.5596C31.2721 31.3773 30.9461 31.2802 30.6128 31.2802C30.2796 31.2802 29.9536 31.3773 29.6746 31.5596C29.296 31.8007 28.8564 31.9287 28.4076 31.9287C27.9588 31.9287 27.5192 31.8007 27.1406 31.5596C26.8617 31.3771 26.5355 31.2799 26.2022 31.2799C25.8689 31.2799 25.5427 31.3771 25.2638 31.5596C24.8852 31.8007 24.4456 31.9287 23.9968 31.9287C23.548 31.9287 23.1084 31.8007 22.7298 31.5596C22.451 31.3772 22.1252 31.2801 21.792 31.2801C21.4589 31.2801 21.133 31.3772 20.8543 31.5596C20.511 31.7878 20.1104 31.9146 19.6984 31.9255L19.6757 31.2768C19.98 31.2695 20.2755 31.1732 20.5257 30.9998C20.9042 30.7587 21.3436 30.6307 21.7924 30.6307C22.2411 30.6307 22.6805 30.7587 23.059 30.9998C23.338 31.1821 23.664 31.2793 23.9973 31.2793C24.3306 31.2793 24.6566 31.1821 24.9356 30.9998C25.3142 30.7585 25.7539 30.6304 26.2028 30.6304C26.6518 30.6304 27.0915 30.7585 27.4701 30.9998C27.7491 31.1821 28.0751 31.2793 28.4084 31.2793C28.7417 31.2793 29.0677 31.1821 29.3467 30.9998C29.7253 30.7588 30.1648 30.6308 30.6137 30.6308C31.0625 30.6308 31.502 30.7588 31.8806 30.9998C32.1603 31.1826 32.4871 31.2799 32.8212 31.2799C33.1552 31.2799 33.4821 31.1826 33.7617 30.9998C34.1361 30.751 34.5775 30.6224 35.0269 30.6313V31.28C34.6923 31.2708 34.3635 31.3687 34.0883 31.5593C33.7126 31.8092 33.2694 31.9381 32.8183 31.9287Z" fill="white"/>
<path d="M15.1783 31.9285C14.7282 31.9378 14.2861 31.809 13.9115 31.5594C13.6364 31.3686 13.3075 31.2707 12.9729 31.2798V30.6312C13.4231 30.6218 13.8653 30.7506 14.24 31.0002C14.515 31.191 14.8437 31.289 15.1783 31.2798C15.513 31.289 15.8419 31.1909 16.1169 30.9999C16.4908 30.7504 16.9323 30.6217 17.3818 30.6312C17.8203 30.6213 18.2516 30.7442 18.6191 30.9837L18.2918 31.5435C18.0234 31.3628 17.7052 31.2706 17.3818 31.2798C17.0484 31.2708 16.721 31.3685 16.4471 31.5587C16.072 31.809 15.6291 31.9381 15.1783 31.9285Z" fill="white"/>
<path d="M32.8193 29.6579C32.3688 29.6671 31.9263 29.5383 31.5512 29.2888C31.272 29.1064 30.9456 29.0092 30.6121 29.0092C30.2785 29.0092 29.9522 29.1064 29.673 29.2888C29.2944 29.5298 28.855 29.6578 28.4062 29.6578C27.9574 29.6578 27.518 29.5298 27.1394 29.2888C26.8606 29.1065 26.5346 29.0094 26.2014 29.0094C25.8683 29.0094 25.5423 29.1065 25.2635 29.2888C24.8849 29.5299 24.4455 29.6579 23.9967 29.6579C23.5479 29.6579 23.1084 29.5299 22.7299 29.2888C22.451 29.1065 22.1251 29.0094 21.7919 29.0094C21.4588 29.0094 21.1328 29.1065 20.854 29.2888C20.4794 29.5384 20.0372 29.6672 19.5872 29.6579C19.1371 29.6672 18.695 29.5384 18.3204 29.2888C18.0455 29.0981 17.7169 29.0001 17.3824 29.0093C17.0481 29.0002 16.7196 29.0981 16.4448 29.2888C16.0708 29.5381 15.6294 29.6669 15.1799 29.6579C14.7298 29.6672 14.2875 29.5384 13.9128 29.2888C13.6374 29.0977 13.308 28.9997 12.9729 29.0093V28.3606C13.423 28.3513 13.8651 28.4801 14.2397 28.7297C14.5148 28.9204 14.8437 29.0184 15.1783 29.0093C15.5126 29.0183 15.8412 28.9204 16.1159 28.7297C16.49 28.4804 16.9314 28.3516 17.3808 28.3606C17.8312 28.351 18.2737 28.4799 18.6486 28.7297C18.9236 28.9205 19.2523 29.0184 19.5868 29.0093C19.9214 29.0184 20.2501 28.9205 20.5251 28.7297C20.9037 28.4886 21.3431 28.3605 21.7919 28.3605C22.2407 28.3605 22.6802 28.4886 23.0587 28.7297C23.3376 28.9121 23.6636 29.0092 23.9968 29.0092C24.3301 29.0092 24.6561 28.9121 24.935 28.7297C25.3135 28.4886 25.753 28.3605 26.2018 28.3605C26.6506 28.3605 27.09 28.4886 27.4686 28.7297C27.7475 28.9121 28.0735 29.0092 28.4067 29.0092C28.7399 29.0092 29.0659 28.9121 29.3448 28.7297C29.7237 28.4887 30.1635 28.3607 30.6126 28.3607C31.0617 28.3607 31.5014 28.4887 31.8804 28.7297C32.1597 28.912 32.4862 29.0091 32.8198 29.0091C33.1534 29.0091 33.4798 28.912 33.7592 28.7297C34.1342 28.4803 34.5766 28.3515 35.027 28.3606V29.0093C34.6917 28.9998 34.3621 29.0977 34.0864 29.2888C33.7115 29.5381 33.2694 29.6669 32.8193 29.6579Z" fill="white"/>
<path d="M32.8183 27.388C32.3682 27.3972 31.926 27.2684 31.5512 27.0189C31.276 26.8282 30.9472 26.7303 30.6126 26.7394C30.367 26.7309 30.1231 26.7833 29.9026 26.8918L29.6166 26.308C29.9262 26.1563 30.2679 26.0814 30.6126 26.0897C31.0633 26.0806 31.506 26.2097 31.881 26.4598C32.1606 26.6426 32.4875 26.7399 32.8216 26.7399C33.1556 26.7399 33.4825 26.6426 33.7621 26.4598C34.1363 26.2109 34.5776 26.0821 35.027 26.0907V26.7394C34.6924 26.7302 34.3635 26.828 34.0884 27.0186C33.7126 27.2685 33.2694 27.3974 32.8183 27.388Z" fill="white"/>
<path d="M28.4043 27.3879C27.9548 27.3973 27.5133 27.2686 27.1394 27.0191C26.8604 26.8366 26.5343 26.7395 26.201 26.7395C25.8676 26.7395 25.5415 26.8366 25.2625 27.0191C24.8839 27.2602 24.4444 27.3882 23.9955 27.3882C23.5467 27.3882 23.1072 27.2602 22.7286 27.0191C22.4496 26.8367 22.1236 26.7396 21.7903 26.7396C21.457 26.7396 21.131 26.8367 20.852 27.0191C20.4775 27.2683 20.0357 27.397 19.5859 27.3879C19.1358 27.3972 18.6937 27.2684 18.3191 27.0188C18.0439 26.8281 17.7151 26.7301 17.3805 26.7392C17.0471 26.7302 16.7197 26.828 16.4458 27.0181C16.0711 27.2682 15.6287 27.3972 15.1783 27.3879C14.7282 27.3972 14.2861 27.2684 13.9115 27.0188C13.6364 26.8281 13.3075 26.7301 12.9729 26.7392V26.0906C13.4231 26.0812 13.8653 26.21 14.24 26.4597C14.515 26.6504 14.8437 26.7484 15.1783 26.7392C15.513 26.7484 15.8419 26.6503 16.1169 26.4593C16.4908 26.2098 16.9323 26.0811 17.3818 26.0906C17.8318 26.0813 18.2739 26.2101 18.6486 26.4597C18.9236 26.6504 19.2523 26.7484 19.5868 26.7392C19.9215 26.7483 20.2503 26.6504 20.5254 26.4597C20.9041 26.2186 21.3436 26.0906 21.7924 26.0906C22.2413 26.0906 22.6808 26.2186 23.0594 26.4597C23.3383 26.642 23.6644 26.7391 23.9977 26.7391C24.3309 26.7391 24.657 26.642 24.9359 26.4597C25.3146 26.2184 25.7543 26.0903 26.2032 26.0903C26.6522 26.0903 27.0919 26.2184 27.4705 26.4597C27.7563 26.6518 28.0951 26.7495 28.4393 26.7389C28.4643 26.7392 28.4893 26.7379 28.5142 26.735L28.6005 27.3778C28.5354 27.3854 28.4698 27.3888 28.4043 27.3879Z" fill="white"/>
<path d="M32.8193 25.1174C32.3688 25.1266 31.9263 24.9978 31.5512 24.7483C31.272 24.5658 30.9456 24.4687 30.6121 24.4687C30.2785 24.4687 29.9522 24.5658 29.673 24.7483C29.2944 24.9893 28.855 25.1173 28.4062 25.1173C27.9574 25.1173 27.518 24.9893 27.1394 24.7483C26.8606 24.5659 26.5346 24.4688 26.2014 24.4688C25.8683 24.4688 25.5423 24.5659 25.2635 24.7483C24.8849 24.9893 24.4455 25.1174 23.9967 25.1174C23.5479 25.1174 23.1084 24.9893 22.7299 24.7483C22.451 24.5659 22.1251 24.4688 21.7919 24.4688C21.4588 24.4688 21.1328 24.5659 20.854 24.7483C20.4794 24.9979 20.0372 25.1267 19.5872 25.1174C19.1371 25.1267 18.695 24.9979 18.3204 24.7483C18.0455 24.5575 17.7169 24.4596 17.3824 24.4687C17.0481 24.4596 16.7196 24.5576 16.4448 24.7483C16.0708 24.9976 15.6294 25.1264 15.1799 25.1174C14.7298 25.1267 14.2875 24.9979 13.9128 24.7483C13.6374 24.5572 13.308 24.4592 12.9729 24.4687V23.8201C13.423 23.8108 13.8651 23.9396 14.2397 24.1892C14.5148 24.3799 14.8437 24.4778 15.1783 24.4687C15.5126 24.4778 15.8412 24.3799 16.1159 24.1892C16.49 23.9398 16.9314 23.811 17.3808 23.8201C17.8312 23.8105 18.2737 23.9393 18.6486 24.1892C18.9236 24.3799 19.2523 24.4779 19.5868 24.4687C19.9214 24.4779 20.2501 24.3799 20.5251 24.1892C20.9037 23.9481 21.3431 23.82 21.7919 23.82C22.2407 23.82 22.6802 23.9481 23.0587 24.1892C23.3376 24.3715 23.6636 24.4687 23.9968 24.4687C24.3301 24.4687 24.6561 24.3715 24.935 24.1892C25.3135 23.9481 25.753 23.82 26.2018 23.82C26.6506 23.82 27.09 23.9481 27.4686 24.1892C27.7475 24.3715 28.0735 24.4687 28.4067 24.4687C28.7399 24.4687 29.0659 24.3715 29.3448 24.1892C29.7237 23.9482 30.1635 23.8202 30.6126 23.8202C31.0617 23.8202 31.5014 23.9482 31.8804 24.1892C32.1597 24.3715 32.4862 24.4686 32.8198 24.4686C33.1534 24.4686 33.4798 24.3715 33.7592 24.1892C34.1342 23.9397 34.5766 23.8109 35.027 23.8201V24.4687C34.6917 24.4592 34.3621 24.5572 34.0864 24.7483C33.7115 24.9976 33.2694 25.1264 32.8193 25.1174Z" fill="white"/>
<path d="M28.1977 24.8425L27.5857 24.6278C27.7433 24.175 27.8077 23.6949 27.775 23.2165C27.7423 22.7381 27.6131 22.2713 27.3953 21.8441L25.1675 17.4815C25.1455 17.4385 25.1335 17.391 25.1322 17.3426C25.1309 17.2943 25.1404 17.2463 25.1601 17.2021C25.1798 17.1579 25.2091 17.1187 25.2459 17.0873C25.2827 17.0559 25.3261 17.0331 25.3728 17.0207L29.8125 15.8369C29.9572 15.799 30.0811 15.7056 30.1572 15.5769C30.2334 15.4482 30.2556 15.2946 30.2191 15.1496C30.1826 15.0045 30.0903 14.8798 29.9623 14.8025C29.8342 14.7252 29.6809 14.7015 29.5355 14.7367L24.1621 16.0211C24.0473 16.0482 23.9402 16.1014 23.8492 16.1766C23.7582 16.2518 23.6857 16.3469 23.6374 16.4546C23.5891 16.5623 23.5662 16.6797 23.5705 16.7976C23.5748 16.9156 23.6063 17.031 23.6623 17.1348L25.258 20.0992C25.2985 20.1745 25.3076 20.2628 25.2833 20.3448C25.259 20.4268 25.2033 20.4959 25.1283 20.537L23.0688 21.6722L22.7559 21.104L24.5338 20.1239L23.0919 17.4423C22.9887 17.2509 22.931 17.0383 22.9231 16.821C22.9152 16.6036 22.9574 16.3874 23.0465 16.189C23.1355 15.9907 23.269 15.8154 23.4366 15.6768C23.6041 15.5383 23.8014 15.4401 24.0129 15.3899L29.3838 14.1059C29.6964 14.0269 30.0277 14.0753 30.3046 14.2406C30.5816 14.4058 30.7816 14.6743 30.8606 14.9869C30.9396 15.2996 30.8911 15.6309 30.7259 15.9078C30.5607 16.1848 30.2922 16.3848 29.9795 16.4638L25.9274 17.5438L27.9733 21.5486C28.2309 22.0542 28.3836 22.6066 28.4221 23.1726C28.4607 23.7387 28.3844 24.3067 28.1977 24.8425Z" fill="white"/>
<path d="M21.6222 21.7338L17.6809 23.9055L17.9938 24.4733L21.9351 22.3016L21.6222 21.7338Z" fill="white"/>
<path d="M31.1351 22.6851C30.654 22.6851 30.1837 22.5424 29.7837 22.2751C29.3837 22.0079 29.0719 21.628 28.8878 21.1835C28.7037 20.7391 28.6555 20.25 28.7494 19.7782C28.8432 19.3063 29.0749 18.8729 29.4151 18.5327C29.7553 18.1926 30.1887 17.9609 30.6605 17.8671C31.1324 17.7732 31.6215 17.8214 32.0659 18.0055C32.5104 18.1896 32.8903 18.5013 33.1576 18.9013C33.4248 19.3013 33.5675 19.7716 33.5675 20.2527C33.5668 20.8976 33.3103 21.5159 32.8543 21.9719C32.3983 22.4279 31.78 22.6844 31.1351 22.6851ZM31.1351 18.4689C30.7823 18.4689 30.4374 18.5736 30.1441 18.7696C29.8507 18.9656 29.6221 19.2441 29.4871 19.5701C29.3521 19.896 29.3167 20.2547 29.3856 20.6007C29.4544 20.9467 29.6243 21.2645 29.8737 21.514C30.1232 21.7634 30.4411 21.9333 30.7871 22.0022C31.1331 22.071 31.4918 22.0357 31.8177 21.9006C32.1436 21.7656 32.4222 21.537 32.6182 21.2437C32.8142 20.9503 32.9189 20.6055 32.9189 20.2527C32.9183 19.7798 32.7301 19.3264 32.3957 18.9921C32.0613 18.6577 31.608 18.4695 31.1351 18.4689Z" fill="white"/>
</svg>
