<svg width="107" height="35" viewBox="0 0 107 35" fill="none" xmlns="http://www.w3.org/2000/svg">
<rect width="107" height="35" rx="17.5" fill="#080809"/>
<g clip-path="url(#clip0_209_501)">
<path d="M28.5075 17.0018L18.4639 26.673C17.9936 26.3516 17.7144 25.817 17.7193 25.2473V8.75626C17.7144 8.18663 17.9936 7.65199 18.4639 7.33057L28.5075 17.0018Z" fill="#2196F3"/>
<path d="M32.0217 13.6236L28.5074 17.0018L18.4639 7.33053C18.5017 7.3012 18.5411 7.27392 18.5819 7.2488C19.1127 6.92708 19.7757 6.9167 20.3164 7.22156L32.0217 13.6236Z" fill="#4CAF50"/>
<path d="M36.2806 17.0017C36.2872 17.6447 35.9377 18.2387 35.3725 18.5454L32.0217 20.3798L28.5073 17.0017L32.0217 13.6235L35.3725 15.4579C35.9377 15.7646 36.2872 16.3586 36.2806 17.0017Z" fill="#F0BB1F"/>
<path d="M32.0217 20.3801L20.3164 26.7822C19.7745 27.0823 19.114 27.0719 18.5819 26.7549C18.5411 26.7298 18.5017 26.7025 18.4639 26.6732L28.5074 17.002L32.0217 20.3801Z" fill="#F15A2B"/>
</g>
<path d="M48.024 11.8801H45.216V13H46.712C46.512 13.536 46.024 13.864 45.28 13.864C44.192 13.864 43.52 13.168 43.52 12.216C43.52 11.2321 44.224 10.5361 45.168 10.5361C45.8 10.5361 46.304 10.8241 46.536 11.1921L47.624 10.5681C47.152 9.81608 46.248 9.28809 45.176 9.28809C43.528 9.28809 42.24 10.5841 42.24 12.208C42.24 13.816 43.504 15.112 45.264 15.112C46.832 15.112 48.024 14.072 48.024 12.36V11.8801Z" fill="white"/>
<path d="M49.6256 13.768V12.776H51.6256V11.5601H49.6256V10.6321H51.8256V9.40008H48.3456V15H51.8656V13.768H49.6256Z" fill="white"/>
<path d="M55.9478 9.40008H51.7878V10.6321H53.2278V15H54.5078V10.6321H55.9478V9.40008Z" fill="white"/>
<path d="M57.7081 9.40008V15H58.9881V9.40008H57.7081Z" fill="white"/>
<path d="M63.3103 9.40008H59.1503V10.6321H60.5903V15H61.8703V10.6321H63.3103V9.40008Z" fill="white"/>
<path d="M67.7426 15.112C69.3506 15.112 70.6546 13.848 70.6546 12.2C70.6546 10.5521 69.3506 9.28809 67.7426 9.28809C66.1346 9.28809 64.8306 10.5521 64.8306 12.2C64.8306 13.848 66.1346 15.112 67.7426 15.112ZM67.7426 13.864C66.8306 13.864 66.1106 13.2 66.1106 12.2C66.1106 11.2001 66.8306 10.5361 67.7426 10.5361C68.6546 10.5361 69.3746 11.2001 69.3746 12.2C69.3746 13.2 68.6546 13.864 67.7426 13.864Z" fill="white"/>
<path d="M74.0953 9.40008V12.44L71.9353 9.40008H70.9753V15H72.2553V11.9601L74.4153 15H75.3753V9.40008H74.0953Z" fill="white"/>
<path d="M48.024 21.3919V21.6079C48.024 22.3066 47.776 22.8959 47.28 23.3759C46.784 23.8506 46.1307 24.0879 45.32 24.0879C44.4667 24.0879 43.7627 23.8106 43.208 23.2559C42.6533 22.6959 42.376 22.0106 42.376 21.1999C42.376 20.3893 42.6507 19.7066 43.2 19.152C43.7493 18.592 44.4453 18.312 45.288 18.312C45.8 18.312 46.2693 18.4346 46.696 18.68C47.128 18.9253 47.4613 19.2533 47.696 19.6639L47.32 19.8879C47.1333 19.536 46.856 19.2533 46.488 19.04C46.1253 18.8266 45.7253 18.72 45.288 18.72C44.5627 18.72 43.9653 18.96 43.496 19.44C43.032 19.9146 42.8 20.5013 42.8 21.1999C42.8 21.8986 43.0347 22.4879 43.504 22.9679C43.9733 23.4426 44.5787 23.6799 45.32 23.6799C45.976 23.6799 46.5067 23.5012 46.912 23.1439C47.3173 22.7866 47.544 22.3359 47.592 21.7919H45.216V21.3919H48.024Z" fill="white"/>
<path d="M53.7026 23.2479C53.1426 23.8079 52.4599 24.0879 51.6546 24.0879C50.8493 24.0879 50.1666 23.8079 49.6066 23.2479C49.0466 22.6826 48.7666 21.9999 48.7666 21.1999C48.7666 20.3999 49.0466 19.7199 49.6066 19.16C50.1666 18.5946 50.8493 18.312 51.6546 18.312C52.4599 18.312 53.1426 18.5946 53.7026 19.16C54.2626 19.7199 54.5426 20.3999 54.5426 21.1999C54.5426 21.9999 54.2626 22.6826 53.7026 23.2479ZM49.9026 22.9599C50.3826 23.4399 50.9666 23.6799 51.6546 23.6799C52.3426 23.6799 52.9239 23.4399 53.3986 22.9599C53.8786 22.4746 54.1186 21.8879 54.1186 21.1999C54.1186 20.5119 53.8786 19.9279 53.3986 19.448C52.9239 18.9626 52.3426 18.72 51.6546 18.72C50.9666 18.72 50.3826 18.9626 49.9026 19.448C49.4279 19.9279 49.1906 20.5119 49.1906 21.1999C49.1906 21.8879 49.4279 22.4746 49.9026 22.9599Z" fill="white"/>
<path d="M60.2339 23.2479C59.6739 23.8079 58.9912 24.0879 58.1859 24.0879C57.3805 24.0879 56.6979 23.8079 56.1379 23.2479C55.5779 22.6826 55.2979 21.9999 55.2979 21.1999C55.2979 20.3999 55.5779 19.7199 56.1379 19.16C56.6979 18.5946 57.3805 18.312 58.1859 18.312C58.9912 18.312 59.6739 18.5946 60.2339 19.16C60.7939 19.7199 61.0739 20.3999 61.0739 21.1999C61.0739 21.9999 60.7939 22.6826 60.2339 23.2479ZM56.4339 22.9599C56.9139 23.4399 57.4979 23.6799 58.1859 23.6799C58.8739 23.6799 59.4552 23.4399 59.9299 22.9599C60.4099 22.4746 60.6499 21.8879 60.6499 21.1999C60.6499 20.5119 60.4099 19.9279 59.9299 19.448C59.4552 18.9626 58.8739 18.72 58.1859 18.72C57.4979 18.72 56.9139 18.9626 56.4339 19.448C55.9592 19.9279 55.7219 20.5119 55.7219 21.1999C55.7219 21.8879 55.9592 22.4746 56.4339 22.9599Z" fill="white"/>
<path d="M67.4771 21.3919V21.6079C67.4771 22.3066 67.2291 22.8959 66.7331 23.3759C66.2371 23.8506 65.5838 24.0879 64.7731 24.0879C63.9198 24.0879 63.2158 23.8106 62.6611 23.2559C62.1064 22.6959 61.8291 22.0106 61.8291 21.1999C61.8291 20.3893 62.1038 19.7066 62.6531 19.152C63.2024 18.592 63.8984 18.312 64.7411 18.312C65.2531 18.312 65.7224 18.4346 66.1491 18.68C66.5811 18.9253 66.9144 19.2533 67.1491 19.6639L66.7731 19.8879C66.5864 19.536 66.3091 19.2533 65.9411 19.04C65.5784 18.8266 65.1784 18.72 64.7411 18.72C64.0158 18.72 63.4184 18.96 62.9491 19.44C62.4851 19.9146 62.2531 20.5013 62.2531 21.1999C62.2531 21.8986 62.4878 22.4879 62.9571 22.9679C63.4264 23.4426 64.0318 23.6799 64.7731 23.6799C65.4291 23.6799 65.9598 23.5012 66.3651 23.1439C66.7704 22.7866 66.9971 22.3359 67.0451 21.7919H64.6691V21.3919H67.4771Z" fill="white"/>
<path d="M68.9637 23.5999H71.6037V23.9999H68.5397V18.4H68.9637V23.5999Z" fill="white"/>
<path d="M72.909 23.5999H75.709V23.9999H72.485V18.4H75.669V18.8H72.909V20.9759H75.469V21.3759H72.909V23.5999Z" fill="white"/>
<path d="M80.7875 18.4C81.2888 18.4 81.7048 18.5653 82.0355 18.896C82.3662 19.2266 82.5315 19.6399 82.5315 20.1359C82.5315 20.6319 82.3662 21.0453 82.0355 21.3759C81.7048 21.7013 81.2888 21.8639 80.7875 21.8639H79.3075V23.9999H78.8835V18.4H80.7875ZM80.7875 21.4639C81.1715 21.4639 81.4862 21.3386 81.7315 21.0879C81.9822 20.8373 82.1075 20.5199 82.1075 20.1359C82.1075 19.7466 81.9822 19.4266 81.7315 19.176C81.4862 18.9253 81.1715 18.8 80.7875 18.8H79.3075V21.4639H80.7875Z" fill="white"/>
<path d="M84.0028 23.5999H86.6428V23.9999H83.5788V18.4H84.0028V23.5999Z" fill="white"/>
<path d="M91.4484 23.9999L90.9044 22.5759H88.0964L87.5524 23.9999H87.1044L89.2804 18.4H89.7284L91.8964 23.9999H91.4484ZM88.2564 22.1759H90.7524L89.5044 18.92L88.2564 22.1759Z" fill="white"/>
<path d="M95.8809 18.4L93.8409 21.6959V23.9999H93.4169V21.6959L91.3769 18.4H91.8569L93.6329 21.2879L95.4009 18.4H95.8809Z" fill="white"/>
<defs>
<clipPath id="clip0_209_501">
<rect width="20" height="20" fill="white" transform="translate(17 7)"/>
</clipPath>
</defs>
</svg>
