<svg width="100" height="35" viewBox="0 0 100 35" fill="none" xmlns="http://www.w3.org/2000/svg">
<rect width="100" height="35" rx="17.5" fill="#080809"/>
<path d="M21.7892 24C19.408 23.9863 17.4382 19.1252 17.4382 16.6496C17.4382 12.6057 20.4718 11.7203 21.6409 11.7203C22.1678 11.7203 22.7304 11.9273 23.2266 12.1104C23.5736 12.2381 23.9325 12.3699 24.1321 12.3699C24.2515 12.3699 24.5331 12.2578 24.7816 12.1594C25.3117 11.9483 25.9714 11.686 26.7395 11.686C26.7408 11.686 26.7427 11.686 26.744 11.686C27.3176 11.686 29.0566 11.8119 30.1022 13.3821L30.3471 13.7501L29.9946 14.0161C29.4911 14.396 28.5723 15.0891 28.5723 16.4619C28.5723 18.0879 29.6128 18.7132 30.1127 19.014C30.3334 19.1468 30.5618 19.2836 30.5618 19.583C30.5618 19.7785 29.0017 23.9757 26.7363 23.9757C26.1819 23.9757 25.7901 23.8091 25.4444 23.6622C25.0947 23.5134 24.793 23.3852 24.2945 23.3852C24.0419 23.3852 23.7223 23.5047 23.384 23.6315C22.9218 23.8041 22.3985 24 21.8048 24H21.7892Z" fill="white"/>
<path d="M26.9795 8C27.0385 10.1273 25.5171 11.6031 23.9975 11.5105C23.7471 9.81289 25.5169 8 26.9795 8Z" fill="white"/>
<path d="M39.03 13.0001H40.08L38.652 8.80012H37.428L36 13.0001H37.05L37.26 12.3401H38.82L39.03 13.0001ZM37.548 11.4401L38.04 9.89811L38.532 11.4401H37.548Z" fill="white"/>
<path d="M42.2049 10.0001L41.5809 11.9021L40.9569 10.0001H39.9609L41.0709 13.0001H42.0909L43.2009 10.0001H42.2049Z" fill="white"/>
<path d="M45.592 10.0001V10.2821C45.394 10.0541 45.1 9.91611 44.698 9.91611C43.912 9.91611 43.264 10.6061 43.264 11.5001C43.264 12.3941 43.912 13.0841 44.698 13.0841C45.1 13.0841 45.394 12.9461 45.592 12.7181V13.0001H46.492V10.0001H45.592ZM44.878 12.2321C44.464 12.2321 44.164 11.9501 44.164 11.5001C44.164 11.0501 44.464 10.7681 44.878 10.7681C45.292 10.7681 45.592 11.0501 45.592 11.5001C45.592 11.9501 45.292 12.2321 44.878 12.2321Z" fill="white"/>
<path d="M47.1523 13.0001H48.0523V8.62012H47.1523V13.0001Z" fill="white"/>
<path d="M49.1609 9.73611C49.4549 9.73611 49.7009 9.49011 49.7009 9.19611C49.7009 8.90212 49.4549 8.65612 49.1609 8.65612C48.8669 8.65612 48.6209 8.90212 48.6209 9.19611C48.6209 9.49011 48.8669 9.73611 49.1609 9.73611ZM48.7109 13.0001H49.6109V10.0001H48.7109V13.0001Z" fill="white"/>
<path d="M52.0635 9.91611C51.6615 9.91611 51.3675 10.0541 51.1695 10.2821V8.80012H50.2695V13.0001H51.1695V12.7181C51.3675 12.9461 51.6615 13.0841 52.0635 13.0841C52.8495 13.0841 53.4975 12.3941 53.4975 11.5001C53.4975 10.6061 52.8495 9.91611 52.0635 9.91611ZM51.8835 12.2321C51.4695 12.2321 51.1695 11.9501 51.1695 11.5001C51.1695 11.0501 51.4695 10.7681 51.8835 10.7681C52.2975 10.7681 52.5975 11.0501 52.5975 11.5001C52.5975 11.9501 52.2975 12.2321 51.8835 12.2321Z" fill="white"/>
<path d="M54.0077 13.0001H54.9077V8.62012H54.0077V13.0001Z" fill="white"/>
<path d="M56.3703 11.8601H58.5003C58.5243 11.7461 58.5363 11.6261 58.5363 11.5001C58.5363 10.5941 57.8883 9.91611 57.0123 9.91611C56.0643 9.91611 55.4163 10.6061 55.4163 11.5001C55.4163 12.3941 56.0523 13.0841 57.0783 13.0841C57.6483 13.0841 58.0923 12.8741 58.3863 12.4661L57.6663 12.0521C57.5463 12.1841 57.3363 12.2801 57.0903 12.2801C56.7603 12.2801 56.4843 12.1721 56.3703 11.8601ZM56.3523 11.1881C56.4363 10.8821 56.6643 10.7141 57.0063 10.7141C57.2763 10.7141 57.5463 10.8401 57.6423 11.1881H56.3523Z" fill="white"/>
<path d="M61.9868 13.0841C62.8688 13.0841 63.5768 12.3941 63.5768 11.5001C63.5768 10.6061 62.8688 9.91611 61.9868 9.91611C61.1048 9.91611 60.3968 10.6061 60.3968 11.5001C60.3968 12.3941 61.1048 13.0841 61.9868 13.0841ZM61.9868 12.2081C61.5968 12.2081 61.2968 11.9261 61.2968 11.5001C61.2968 11.0741 61.5968 10.7921 61.9868 10.7921C62.3768 10.7921 62.6768 11.0741 62.6768 11.5001C62.6768 11.9261 62.3768 12.2081 61.9868 12.2081Z" fill="white"/>
<path d="M65.8439 9.91611C65.4479 9.91611 65.1479 10.0601 64.9859 10.2821V10.0001H64.0859V13.0001H64.9859V11.3621C64.9859 10.9361 65.2139 10.7441 65.5439 10.7441C65.8319 10.7441 66.0659 10.9181 66.0659 11.2901V13.0001H66.9659V11.1581C66.9659 10.3481 66.4499 9.91611 65.8439 9.91611Z" fill="white"/>
<path d="M70.8419 10.8641V10.0001H70.2239V9.16011L69.3239 9.43011V10.0001H68.8439V10.8641H69.3239V11.9261C69.3239 12.7661 69.6659 13.1201 70.8419 13.0001V12.1841C70.4459 12.2081 70.2239 12.1841 70.2239 11.9261V10.8641H70.8419Z" fill="white"/>
<path d="M73.1095 9.91611C72.7135 9.91611 72.4135 10.0601 72.2515 10.2821V8.80012H71.3515V13.0001H72.2515V11.3621C72.2515 10.9361 72.4795 10.7441 72.8095 10.7441C73.0975 10.7441 73.3315 10.9181 73.3315 11.2901V13.0001H74.2315V11.1581C74.2315 10.3481 73.7155 9.91611 73.1095 9.91611Z" fill="white"/>
<path d="M75.6535 11.8601H77.7835C77.8075 11.7461 77.8195 11.6261 77.8195 11.5001C77.8195 10.5941 77.1715 9.91611 76.2955 9.91611C75.3475 9.91611 74.6995 10.6061 74.6995 11.5001C74.6995 12.3941 75.3355 13.0841 76.3615 13.0841C76.9315 13.0841 77.3755 12.8741 77.6695 12.4661L76.9495 12.0521C76.8295 12.1841 76.6195 12.2801 76.3735 12.2801C76.0435 12.2801 75.7675 12.1721 75.6535 11.8601ZM75.6355 11.1881C75.7195 10.8821 75.9475 10.7141 76.2895 10.7141C76.5595 10.7141 76.8295 10.8401 76.9255 11.1881H75.6355Z" fill="white"/>
<path d="M41.05 24H42.8L40.42 17.0001H38.38L36 24H37.75L38.1 22.9H40.7L41.05 24ZM38.58 21.4L39.4 18.83L40.22 21.4H38.58Z" fill="white"/>
<path d="M46.3369 18.86C45.6669 18.86 45.1769 19.09 44.8469 19.47V19H43.3469V26H44.8469V23.53C45.1769 23.91 45.6669 24.14 46.3369 24.14C47.6469 24.14 48.7269 22.99 48.7269 21.5C48.7269 20.01 47.6469 18.86 46.3369 18.86ZM46.0369 22.72C45.3469 22.72 44.8469 22.25 44.8469 21.5C44.8469 20.75 45.3469 20.28 46.0369 20.28C46.7269 20.28 47.2269 20.75 47.2269 21.5C47.2269 22.25 46.7269 22.72 46.0369 22.72Z" fill="white"/>
<path d="M52.5673 18.86C51.8973 18.86 51.4073 19.09 51.0773 19.47V19H49.5773V26H51.0773V23.53C51.4073 23.91 51.8973 24.14 52.5673 24.14C53.8773 24.14 54.9573 22.99 54.9573 21.5C54.9573 20.01 53.8773 18.86 52.5673 18.86ZM52.2673 22.72C51.5773 22.72 51.0773 22.25 51.0773 21.5C51.0773 20.75 51.5773 20.28 52.2673 20.28C52.9573 20.28 53.4573 20.75 53.4573 21.5C53.4573 22.25 52.9573 22.72 52.2673 22.72Z" fill="white"/>
<path d="M55.8078 24H57.3078V16.7001H55.8078V24Z" fill="white"/>
<path d="M59.7455 22.1H63.2955C63.3355 21.91 63.3555 21.71 63.3555 21.5C63.3555 19.99 62.2755 18.86 60.8155 18.86C59.2355 18.86 58.1555 20.01 58.1555 21.5C58.1555 22.99 59.2155 24.14 60.9255 24.14C61.8755 24.14 62.6155 23.79 63.1055 23.11L61.9055 22.42C61.7055 22.64 61.3555 22.8 60.9455 22.8C60.3955 22.8 59.9355 22.62 59.7455 22.1ZM59.7155 20.98C59.8555 20.47 60.2355 20.19 60.8055 20.19C61.2555 20.19 61.7055 20.4 61.8655 20.98H59.7155Z" fill="white"/>
<path d="M69.2062 24.14C70.7262 24.14 71.8063 23.34 71.8063 21.99C71.8063 20.51 70.6163 20.14 69.5563 19.82C68.4663 19.49 68.2962 19.27 68.2962 18.95C68.2962 18.67 68.5462 18.4201 69.0462 18.4201C69.6862 18.4201 70.0162 18.73 70.2562 19.23L71.6063 18.4401C71.0963 17.4101 70.1963 16.8601 69.0462 16.8601C67.8363 16.8601 66.6963 17.6401 66.6963 18.99C66.6963 20.33 67.7162 20.83 68.7562 21.12C69.8062 21.41 70.2062 21.58 70.2062 22.01C70.2062 22.28 70.0162 22.58 69.2562 22.58C68.4662 22.58 68.0363 22.19 67.7862 21.61L66.4062 22.41C66.7962 23.44 67.7362 24.14 69.2062 24.14Z" fill="white"/>
<path d="M75.3394 20.44V19H74.3094V17.6001L72.8094 18.0501V19H72.0094V20.44H72.8094V22.21C72.8094 23.61 73.3794 24.2 75.3394 24V22.64C74.6794 22.68 74.3094 22.64 74.3094 22.21V20.44H75.3394Z" fill="white"/>
<path d="M78.491 24.14C79.961 24.14 81.141 22.99 81.141 21.5C81.141 20.01 79.961 18.86 78.491 18.86C77.021 18.86 75.841 20.01 75.841 21.5C75.841 22.99 77.021 24.14 78.491 24.14ZM78.491 22.68C77.841 22.68 77.341 22.21 77.341 21.5C77.341 20.79 77.841 20.32 78.491 20.32C79.141 20.32 79.641 20.79 79.641 21.5C79.641 22.21 79.141 22.68 78.491 22.68Z" fill="white"/>
<path d="M83.4895 19.89V19H81.9895V24H83.4895V21.74C83.4895 20.75 84.3695 20.5 84.9895 20.6V18.9C84.3595 18.9 83.6895 19.22 83.4895 19.89Z" fill="white"/>
<path d="M86.8841 22.1H90.4341C90.4741 21.91 90.4941 21.71 90.4941 21.5C90.4941 19.99 89.4141 18.86 87.9541 18.86C86.3741 18.86 85.2941 20.01 85.2941 21.5C85.2941 22.99 86.3541 24.14 88.0641 24.14C89.0141 24.14 89.7541 23.79 90.2441 23.11L89.0441 22.42C88.8441 22.64 88.4941 22.8 88.0841 22.8C87.5341 22.8 87.0741 22.62 86.8841 22.1ZM86.8541 20.98C86.9941 20.47 87.3741 20.19 87.9441 20.19C88.3941 20.19 88.8441 20.4 89.0041 20.98H86.8541Z" fill="white"/>
</svg>
