<svg width="264" height="352" viewBox="0 0 264 352" fill="none" xmlns="http://www.w3.org/2000/svg">
<g opacity="0.1">
<mask id="mask0_209_557" style="mask-type:alpha" maskUnits="userSpaceOnUse" x="0" y="0" width="264" height="352">
<path d="M0.5 0.5H240C252.979 0.5 263.5 11.0213 263.5 24V351.021H50C22.6619 351.021 0.5 328.86 0.5 301.521V0.5Z" fill="url(#paint0_linear_209_557)" stroke="#6246E5"/>
</mask>
<g mask="url(#mask0_209_557)">
<path d="M330.818 178.32C330.818 229.022 289.717 270.124 239.015 270.124C188.313 270.124 147.212 229.022 147.212 178.32C147.212 127.618 188.313 86.5166 239.015 86.5166C289.717 86.5166 330.818 127.618 330.818 178.32Z" stroke="#6246E5"/>
<circle cx="231.728" cy="168.604" r="102.734" stroke="#6246E5"/>
<path d="M338.106 160.709C338.106 222.814 287.76 273.16 225.655 273.16C163.551 273.16 113.205 222.814 113.205 160.709C113.205 98.6049 163.551 48.2593 225.655 48.2593C287.76 48.2593 338.106 98.6049 338.106 160.709Z" stroke="#6246E5"/>
<path d="M340.535 149.171C340.535 215.971 286.383 270.123 219.583 270.123C152.783 270.123 98.6313 215.971 98.6313 149.171C98.6313 82.3716 152.783 28.2197 219.583 28.2197C286.383 28.2197 340.535 82.3716 340.535 149.171Z" stroke="#6246E5"/>
<path d="M342.964 137.937C342.964 209.265 285.141 267.087 213.814 267.087C142.486 267.087 84.6641 209.265 84.6641 137.937C84.6641 66.6099 142.486 8.7876 213.814 8.7876C285.141 8.7876 342.964 66.6099 342.964 137.937Z" stroke="#6246E5"/>
<path d="M346 125.185C346 203.555 282.468 267.087 204.098 267.087C125.728 267.087 62.1958 203.555 62.1958 125.185C62.1958 46.8145 125.728 -16.7173 204.098 -16.7173C282.468 -16.7173 346 46.8145 346 125.185Z" stroke="#6246E5"/>
</g>
</g>
<defs>
<linearGradient id="paint0_linear_209_557" x1="187.239" y1="9.86233" x2="5.23235" y2="354.286" gradientUnits="userSpaceOnUse">
<stop stop-color="#747DEF"/>
<stop offset="1" stop-color="#5E3BE1"/>
</linearGradient>
</defs>
</svg>
